<svg width="50" height="50" viewBox="0 0 50 50" fill="none" xmlns="http://www.w3.org/2000/svg">
<path d="M50 25C50 38.8071 38.8071 50 25 50C11.1929 50 0 38.8071 0 25C0 11.1929 11.1929 0 25 0C38.8071 0 50 11.1929 50 25Z" fill="#D9D9D9"/>
<path d="M9.23074 44.4003C10.5836 37.7423 17.1292 32.6923 25 32.6923C32.8708 32.6923 39.4164 37.7423 40.7693 44.4003C36.4674 47.9012 30.9788 50 25 50C19.0212 50 13.5326 47.9012 9.23074 44.4003Z" fill="white"/>
<path d="M32.6923 21.6346C32.6923 25.9715 29.1766 29.4872 24.8397 29.4872C20.5029 29.4872 16.9872 25.9715 16.9872 21.6346C16.9872 17.2978 20.5029 13.7821 24.8397 13.7821C29.1766 13.7821 32.6923 17.2978 32.6923 21.6346Z" fill="white"/>
</svg>
