<svg width="585" height="200" viewBox="0 0 585 200" fill="none" xmlns="http://www.w3.org/2000/svg">
<path opacity="0.15" fill-rule="evenodd" clip-rule="evenodd" d="M0 109.9H549V199.9H0V109.9ZM0 0H342V90H0V0Z" fill="white"/>
<path d="M28.2601 75.8011V49.1611H53.1001V75.8011H68.4901V12.0811H53.1001V36.2011H28.2601V12.0811H12.8701V75.8011H28.2601V75.8011ZM126.09 75.8011V62.6611H96.4801V49.4311H122.94V37.1011H96.4801V25.1311H124.47V12.0811H81.6301V75.8011H126.09ZM176.4 75.8011V62.3911H151.74V12.0811H136.26V75.8011H176.4V75.8011ZM223.74 75.8011V62.3911H199.08V12.0811H183.6V75.8011H223.74ZM262.62 77.5111C267.6 77.5111 272.22 76.7011 276.48 75.0811C280.74 73.4611 284.415 71.1661 287.505 68.1961C290.595 65.2261 293.01 61.6561 294.75 57.4861C296.49 53.3161 297.36 48.7111 297.36 43.6711C297.36 38.5711 296.49 33.9661 294.75 29.8561C293.01 25.7461 290.595 22.2511 287.505 19.3711C284.415 16.4911 280.74 14.2711 276.48 12.7111C272.22 11.1511 267.6 10.3711 262.62 10.3711C257.64 10.3711 253.035 11.1511 248.805 12.7111C244.575 14.2711 240.915 16.4911 237.825 19.3711C234.735 22.2511 232.32 25.7461 230.58 29.8561C228.84 33.9661 227.97 38.5711 227.97 43.6711C227.97 48.7111 228.84 53.3161 230.58 57.4861C232.32 61.6561 234.735 65.2261 237.825 68.1961C240.915 71.1661 244.575 73.4611 248.805 75.0811C253.035 76.7011 257.64 77.5111 262.62 77.5111ZM262.62 63.4711C259.92 63.4711 257.46 62.9761 255.24 61.9861C253.02 60.9961 251.115 59.6311 249.525 57.8911C247.935 56.1511 246.69 54.0661 245.79 51.6361C244.89 49.2061 244.44 46.5511 244.44 43.6711C244.44 40.9111 244.875 38.3311 245.745 35.9311C246.615 33.5311 247.86 31.4761 249.48 29.7661C251.1 28.0561 253.02 26.7061 255.24 25.7161C257.46 24.7261 259.92 24.2311 262.62 24.2311C265.32 24.2311 267.795 24.7261 270.045 25.7161C272.295 26.7061 274.215 28.0561 275.805 29.7661C277.395 31.4761 278.64 33.5311 279.54 35.9311C280.44 38.3311 280.89 40.9111 280.89 43.6711C280.89 46.5511 280.44 49.2061 279.54 51.6361C278.64 54.0661 277.38 56.1511 275.76 57.8911C274.14 59.6311 272.22 60.9961 270 61.9861C267.78 62.9761 265.32 63.4711 262.62 63.4711V63.4711ZM36.6301 185.801C41.0101 185.801 45.3301 185.186 49.5901 183.956C53.8501 182.726 57.6751 180.806 61.0651 178.196C64.4551 175.586 67.1851 172.256 69.2551 168.206C71.3251 164.156 72.3601 159.341 72.3601 153.761C72.3601 147.761 71.3101 142.721 69.2101 138.641C67.1101 134.561 64.3501 131.306 60.9301 128.876C57.5101 126.446 53.6101 124.706 49.2301 123.656C44.8501 122.606 40.4101 122.081 35.9101 122.081H12.8701V185.801H36.6301ZM35.1901 172.481H27.9001V135.221H35.5501C38.1901 135.221 40.7551 135.521 43.2451 136.121C45.7351 136.721 47.9551 137.726 49.9051 139.136C51.8551 140.546 53.4151 142.436 54.5851 144.806C55.7551 147.176 56.3401 150.161 56.3401 153.761C56.3401 157.301 55.7551 160.271 54.5851 162.671C53.4151 165.071 51.8551 166.991 49.9051 168.431C47.9551 169.871 45.7051 170.906 43.1551 171.536C40.6051 172.166 37.9501 172.481 35.1901 172.481V172.481ZM126.99 185.801V172.661H97.3801V159.431H123.84V147.101H97.3801V135.131H125.37V122.081H82.5301V185.801H126.99ZM168.75 185.801L193.32 122.081H176.31L161.64 167.261H161.28L146.52 122.081H129.24L153.36 185.801H168.75ZM243 185.801V172.661H213.39V159.431H239.85V147.101H213.39V135.131H241.38V122.081H198.54V185.801H243ZM293.31 185.801V172.391H268.65V122.081H253.17V185.801H293.31ZM332.19 187.511C337.17 187.511 341.79 186.701 346.05 185.081C350.31 183.461 353.985 181.166 357.075 178.196C360.165 175.226 362.58 171.656 364.32 167.486C366.06 163.316 366.93 158.711 366.93 153.671C366.93 148.571 366.06 143.966 364.32 139.856C362.58 135.746 360.165 132.251 357.075 129.371C353.985 126.491 350.31 124.271 346.05 122.711C341.79 121.151 337.17 120.371 332.19 120.371C327.21 120.371 322.605 121.151 318.375 122.711C314.145 124.271 310.485 126.491 307.395 129.371C304.305 132.251 301.89 135.746 300.15 139.856C298.41 143.966 297.54 148.571 297.54 153.671C297.54 158.711 298.41 163.316 300.15 167.486C301.89 171.656 304.305 175.226 307.395 178.196C310.485 181.166 314.145 183.461 318.375 185.081C322.605 186.701 327.21 187.511 332.19 187.511ZM332.19 173.471C329.49 173.471 327.03 172.976 324.81 171.986C322.59 170.996 320.685 169.631 319.095 167.891C317.505 166.151 316.26 164.066 315.36 161.636C314.46 159.206 314.01 156.551 314.01 153.671C314.01 150.911 314.445 148.331 315.315 145.931C316.185 143.531 317.43 141.476 319.05 139.766C320.67 138.056 322.59 136.706 324.81 135.716C327.03 134.726 329.49 134.231 332.19 134.231C334.89 134.231 337.365 134.726 339.615 135.716C341.865 136.706 343.785 138.056 345.375 139.766C346.965 141.476 348.21 143.531 349.11 145.931C350.01 148.331 350.46 150.911 350.46 153.671C350.46 156.551 350.01 159.206 349.11 161.636C348.21 164.066 346.95 166.151 345.33 167.891C343.71 169.631 341.79 170.996 339.57 171.986C337.35 172.976 334.89 173.471 332.19 173.471V173.471ZM392.49 185.801V161.771H400.14C403.44 161.771 406.62 161.411 409.68 160.691C412.74 159.971 415.44 158.831 417.78 157.271C420.12 155.711 421.98 153.656 423.36 151.106C424.74 148.556 425.43 145.421 425.43 141.701C425.43 138.041 424.785 134.966 423.495 132.476C422.205 129.986 420.435 127.976 418.185 126.446C415.935 124.916 413.295 123.806 410.265 123.116C407.235 122.426 403.98 122.081 400.5 122.081H377.1V185.801H392.49V185.801ZM398.97 149.531H392.49V134.501H399.24C400.62 134.501 401.955 134.591 403.245 134.771C404.535 134.951 405.69 135.311 406.71 135.851C407.73 136.391 408.54 137.141 409.14 138.101C409.74 139.061 410.04 140.291 410.04 141.791C410.04 143.291 409.74 144.536 409.14 145.526C408.54 146.516 407.715 147.311 406.665 147.911C405.615 148.511 404.43 148.931 403.11 149.171C401.79 149.411 400.41 149.531 398.97 149.531V149.531ZM479.16 185.801V172.661H449.55V159.431H476.01V147.101H449.55V135.131H477.54V122.081H434.7V185.801H479.16V185.801ZM504.45 185.801V160.511H509.67L523.44 185.801H541.44L524.79 158.531C528.93 157.271 532.17 155.171 534.51 152.231C536.85 149.291 538.02 145.661 538.02 141.341C538.02 137.681 537.33 134.621 535.95 132.161C534.57 129.701 532.725 127.721 530.415 126.221C528.105 124.721 525.495 123.656 522.585 123.026C519.675 122.396 516.69 122.081 513.63 122.081H489.33V185.801H504.45V185.801ZM511.65 149.351H504.36V134.501H512.55C513.69 134.501 514.875 134.591 516.105 134.771C517.335 134.951 518.445 135.296 519.435 135.806C520.425 136.316 521.235 137.036 521.865 137.966C522.495 138.896 522.81 140.111 522.81 141.611C522.81 143.231 522.465 144.551 521.775 145.571C521.085 146.591 520.2 147.371 519.12 147.911C518.04 148.451 516.84 148.826 515.52 149.036C514.2 149.246 512.91 149.351 511.65 149.351V149.351Z" fill="white"/>
<path d="M28.2601 75.8011V49.1611H53.1001V75.8011H68.4901V12.0811H53.1001V36.2011H28.2601V12.0811H12.8701V75.8011H28.2601V75.8011ZM126.09 75.8011V62.6611H96.4801V49.4311H122.94V37.1011H96.4801V25.1311H124.47V12.0811H81.6301V75.8011H126.09ZM176.4 75.8011V62.3911H151.74V12.0811H136.26V75.8011H176.4V75.8011ZM223.74 75.8011V62.3911H199.08V12.0811H183.6V75.8011H223.74ZM262.62 77.5111C267.6 77.5111 272.22 76.7011 276.48 75.0811C280.74 73.4611 284.415 71.1661 287.505 68.1961C290.595 65.2261 293.01 61.6561 294.75 57.4861C296.49 53.3161 297.36 48.7111 297.36 43.6711C297.36 38.5711 296.49 33.9661 294.75 29.8561C293.01 25.7461 290.595 22.2511 287.505 19.3711C284.415 16.4911 280.74 14.2711 276.48 12.7111C272.22 11.1511 267.6 10.3711 262.62 10.3711C257.64 10.3711 253.035 11.1511 248.805 12.7111C244.575 14.2711 240.915 16.4911 237.825 19.3711C234.735 22.2511 232.32 25.7461 230.58 29.8561C228.84 33.9661 227.97 38.5711 227.97 43.6711C227.97 48.7111 228.84 53.3161 230.58 57.4861C232.32 61.6561 234.735 65.2261 237.825 68.1961C240.915 71.1661 244.575 73.4611 248.805 75.0811C253.035 76.7011 257.64 77.5111 262.62 77.5111ZM262.62 63.4711C259.92 63.4711 257.46 62.9761 255.24 61.9861C253.02 60.9961 251.115 59.6311 249.525 57.8911C247.935 56.1511 246.69 54.0661 245.79 51.6361C244.89 49.2061 244.44 46.5511 244.44 43.6711C244.44 40.9111 244.875 38.3311 245.745 35.9311C246.615 33.5311 247.86 31.4761 249.48 29.7661C251.1 28.0561 253.02 26.7061 255.24 25.7161C257.46 24.7261 259.92 24.2311 262.62 24.2311C265.32 24.2311 267.795 24.7261 270.045 25.7161C272.295 26.7061 274.215 28.0561 275.805 29.7661C277.395 31.4761 278.64 33.5311 279.54 35.9311C280.44 38.3311 280.89 40.9111 280.89 43.6711C280.89 46.5511 280.44 49.2061 279.54 51.6361C278.64 54.0661 277.38 56.1511 275.76 57.8911C274.14 59.6311 272.22 60.9961 270 61.9861C267.78 62.9761 265.32 63.4711 262.62 63.4711V63.4711ZM36.6301 185.801C41.0101 185.801 45.3301 185.186 49.5901 183.956C53.8501 182.726 57.6751 180.806 61.0651 178.196C64.4551 175.586 67.1851 172.256 69.2551 168.206C71.3251 164.156 72.3601 159.341 72.3601 153.761C72.3601 147.761 71.3101 142.721 69.2101 138.641C67.1101 134.561 64.3501 131.306 60.9301 128.876C57.5101 126.446 53.6101 124.706 49.2301 123.656C44.8501 122.606 40.4101 122.081 35.9101 122.081H12.8701V185.801H36.6301ZM35.1901 172.481H27.9001V135.221H35.5501C38.1901 135.221 40.7551 135.521 43.2451 136.121C45.7351 136.721 47.9551 137.726 49.9051 139.136C51.8551 140.546 53.4151 142.436 54.5851 144.806C55.7551 147.176 56.3401 150.161 56.3401 153.761C56.3401 157.301 55.7551 160.271 54.5851 162.671C53.4151 165.071 51.8551 166.991 49.9051 168.431C47.9551 169.871 45.7051 170.906 43.1551 171.536C40.6051 172.166 37.9501 172.481 35.1901 172.481V172.481ZM126.99 185.801V172.661H97.3801V159.431H123.84V147.101H97.3801V135.131H125.37V122.081H82.5301V185.801H126.99ZM168.75 185.801L193.32 122.081H176.31L161.64 167.261H161.28L146.52 122.081H129.24L153.36 185.801H168.75ZM243 185.801V172.661H213.39V159.431H239.85V147.101H213.39V135.131H241.38V122.081H198.54V185.801H243ZM293.31 185.801V172.391H268.65V122.081H253.17V185.801H293.31ZM332.19 187.511C337.17 187.511 341.79 186.701 346.05 185.081C350.31 183.461 353.985 181.166 357.075 178.196C360.165 175.226 362.58 171.656 364.32 167.486C366.06 163.316 366.93 158.711 366.93 153.671C366.93 148.571 366.06 143.966 364.32 139.856C362.58 135.746 360.165 132.251 357.075 129.371C353.985 126.491 350.31 124.271 346.05 122.711C341.79 121.151 337.17 120.371 332.19 120.371C327.21 120.371 322.605 121.151 318.375 122.711C314.145 124.271 310.485 126.491 307.395 129.371C304.305 132.251 301.89 135.746 300.15 139.856C298.41 143.966 297.54 148.571 297.54 153.671C297.54 158.711 298.41 163.316 300.15 167.486C301.89 171.656 304.305 175.226 307.395 178.196C310.485 181.166 314.145 183.461 318.375 185.081C322.605 186.701 327.21 187.511 332.19 187.511ZM332.19 173.471C329.49 173.471 327.03 172.976 324.81 171.986C322.59 170.996 320.685 169.631 319.095 167.891C317.505 166.151 316.26 164.066 315.36 161.636C314.46 159.206 314.01 156.551 314.01 153.671C314.01 150.911 314.445 148.331 315.315 145.931C316.185 143.531 317.43 141.476 319.05 139.766C320.67 138.056 322.59 136.706 324.81 135.716C327.03 134.726 329.49 134.231 332.19 134.231C334.89 134.231 337.365 134.726 339.615 135.716C341.865 136.706 343.785 138.056 345.375 139.766C346.965 141.476 348.21 143.531 349.11 145.931C350.01 148.331 350.46 150.911 350.46 153.671C350.46 156.551 350.01 159.206 349.11 161.636C348.21 164.066 346.95 166.151 345.33 167.891C343.71 169.631 341.79 170.996 339.57 171.986C337.35 172.976 334.89 173.471 332.19 173.471V173.471ZM392.49 185.801V161.771H400.14C403.44 161.771 406.62 161.411 409.68 160.691C412.74 159.971 415.44 158.831 417.78 157.271C420.12 155.711 421.98 153.656 423.36 151.106C424.74 148.556 425.43 145.421 425.43 141.701C425.43 138.041 424.785 134.966 423.495 132.476C422.205 129.986 420.435 127.976 418.185 126.446C415.935 124.916 413.295 123.806 410.265 123.116C407.235 122.426 403.98 122.081 400.5 122.081H377.1V185.801H392.49V185.801ZM398.97 149.531H392.49V134.501H399.24C400.62 134.501 401.955 134.591 403.245 134.771C404.535 134.951 405.69 135.311 406.71 135.851C407.73 136.391 408.54 137.141 409.14 138.101C409.74 139.061 410.04 140.291 410.04 141.791C410.04 143.291 409.74 144.536 409.14 145.526C408.54 146.516 407.715 147.311 406.665 147.911C405.615 148.511 404.43 148.931 403.11 149.171C401.79 149.411 400.41 149.531 398.97 149.531V149.531ZM479.16 185.801V172.661H449.55V159.431H476.01V147.101H449.55V135.131H477.54V122.081H434.7V185.801H479.16V185.801ZM504.45 185.801V160.511H509.67L523.44 185.801H541.44L524.79 158.531C528.93 157.271 532.17 155.171 534.51 152.231C536.85 149.291 538.02 145.661 538.02 141.341C538.02 137.681 537.33 134.621 535.95 132.161C534.57 129.701 532.725 127.721 530.415 126.221C528.105 124.721 525.495 123.656 522.585 123.026C519.675 122.396 516.69 122.081 513.63 122.081H489.33V185.801H504.45V185.801ZM511.65 149.351H504.36V134.501H512.55C513.69 134.501 514.875 134.591 516.105 134.771C517.335 134.951 518.445 135.296 519.435 135.806C520.425 136.316 521.235 137.036 521.865 137.966C522.495 138.896 522.81 140.111 522.81 141.611C522.81 143.231 522.465 144.551 521.775 145.571C521.085 146.591 520.2 147.371 519.12 147.911C518.04 148.451 516.84 148.826 515.52 149.036C514.2 149.246 512.91 149.351 511.65 149.351V149.351Z" fill="white"/>
<path opacity="0.15" fill-rule="evenodd" clip-rule="evenodd" d="M584.088 154.48V169.13C584.088 176.165 582.387 181.674 578.985 185.654C575.583 189.635 570.803 192.25 564.647 193.5V186.28C569.322 184.844 572.47 182.252 574.09 178.503C575.016 176.513 575.386 173.791 575.2 171.94H564.3V154.48H584.088ZM584.088 121.5V140.581H564.3V121.5H584.088Z" fill="white"/>
<path fill-rule="evenodd" clip-rule="evenodd" d="M328.488 46.48V61.13C328.488 68.165 326.787 73.674 323.385 77.654C319.983 81.635 315.203 84.25 309.047 85.5V78.28C313.722 76.844 316.87 74.252 318.49 70.503C319.416 68.513 319.786 65.791 319.6 63.94H308.7V46.48H328.488ZM328.488 13.5V32.581H308.7V13.5H328.488Z" fill="white"/>
</svg>
