<svg width="10" height="10" viewBox="0 0 10 10" fill="none" xmlns="http://www.w3.org/2000/svg">
<path d="M5 0C4.0111 0 3.0444 0.293245 2.22215 0.842652C1.39991 1.39206 0.759043 2.17295 0.380605 3.08658C0.00216642 4.00021 -0.0968503 5.00555 0.0960759 5.97545C0.289002 6.94536 0.765206 7.83627 1.46447 8.53554C2.16373 9.2348 3.05465 9.711 4.02455 9.90393C4.99446 10.0969 5.99979 9.99784 6.91342 9.6194C7.82705 9.24096 8.60794 8.6001 9.15735 7.77785C9.70676 6.95561 10 5.98891 10 5C10 3.67392 9.47322 2.40215 8.53554 1.46447C7.59786 0.526784 6.32609 0 5 0ZM5.5 8H4.5V7H5.5V8ZM5.5 6H4.5V2H5.5V6Z" fill="#F91F15"/>
</svg>
