<svg width="120" height="120" viewBox="0 0 120 120" fill="none" xmlns="http://www.w3.org/2000/svg">
<path d="M120 60C120 93.1371 93.1371 120 60 120C26.8629 120 0 93.1371 0 60C0 26.8629 26.8629 0 60 0C93.1371 0 120 26.8629 120 60Z" fill="#D9D9D9"/>
<path d="M22.1538 106.561C25.4007 90.5815 41.1101 78.4615 60 78.4615C78.8899 78.4615 94.5993 90.5815 97.8462 106.561C87.5217 114.963 74.3491 120 60 120C45.6509 120 32.4783 114.963 22.1538 106.561Z" fill="white"/>
<path d="M78.4615 51.9231C78.4615 62.3315 70.0238 70.7692 59.6154 70.7692C49.2069 70.7692 40.7692 62.3315 40.7692 51.9231C40.7692 41.5146 49.2069 33.0769 59.6154 33.0769C70.0238 33.0769 78.4615 41.5146 78.4615 51.9231Z" fill="white"/>
<circle cx="89.6006" cy="91.6001" r="12.75" fill="white" stroke="#DDDDDD" stroke-width="0.5"/>
<path d="M96.9781 84.8949H94.2086C94.0769 84.8949 93.9512 84.8395 93.8623 84.7423L92.4233 83.1696C92.3343 83.0724 92.2087 83.0171 92.0769 83.0171H86.8571C86.7254 83.0171 86.5997 83.0724 86.5108 83.1696L85.0718 84.7423C84.9828 84.8395 84.8572 84.8949 84.7254 84.8949H81.9559C81.4579 84.8949 80.9803 85.0927 80.6281 85.4449C80.276 85.797 80.0781 86.2746 80.0781 86.7726V97.1004C80.0781 97.5984 80.276 98.0761 80.6281 98.4282C80.9803 98.7804 81.4579 98.9782 81.9559 98.9782H96.9781C97.4761 98.9782 97.9538 98.7804 98.3059 98.4282C98.6581 98.0761 98.8559 97.5984 98.8559 97.1004V86.7726C98.8559 86.2746 98.6581 85.797 98.3059 85.4449C97.9538 85.0927 97.4761 84.8949 96.9781 84.8949ZM96.9781 96.631C96.9781 96.8902 96.7679 97.1004 96.5087 97.1004H82.4253C82.1661 97.1004 81.9559 96.8902 81.9559 96.631V87.2421C81.9559 86.9828 82.1661 86.7726 82.4253 86.7726H85.5516C85.6834 86.7726 85.8091 86.7173 85.898 86.6201L87.337 85.0474C87.4259 84.9502 87.5516 84.8949 87.6833 84.8949H91.2507C91.3824 84.8949 91.5081 84.9502 91.597 85.0474L93.036 86.6201C93.125 86.7173 93.2507 86.7726 93.3824 86.7726H96.5087C96.7679 86.7726 96.9781 86.9828 96.9781 87.2421V96.631Z" fill="black"/>
<path d="M89.467 87.7115C88.471 87.7115 87.5157 88.1072 86.8114 88.8115C86.1071 89.5158 85.7115 90.4711 85.7115 91.4671C85.7115 92.4631 86.1071 93.4184 86.8114 94.1227C87.5157 94.827 88.471 95.2226 89.467 95.2226C90.463 95.2226 91.4183 94.827 92.1226 94.1227C92.8269 93.4184 93.2226 92.4631 93.2226 91.4671C93.2226 90.4711 92.8269 89.5158 92.1226 88.8115C91.4183 88.1072 90.463 87.7115 89.467 87.7115ZM89.467 93.7204C88.8694 93.7204 88.2962 93.483 87.8737 93.0604C87.4511 92.6379 87.2137 92.0647 87.2137 91.4671C87.2137 90.8695 87.4511 90.2963 87.8737 89.8737C88.2962 89.4512 88.8694 89.2138 89.467 89.2138C90.0646 89.2138 90.6378 89.4512 91.0604 89.8737C91.4829 90.2963 91.7203 90.8695 91.7203 91.4671C91.7203 92.0647 91.4829 92.6379 91.0604 93.0604C90.6378 93.483 90.0646 93.7204 89.467 93.7204Z" fill="black"/>
</svg>
