<svg width="44" height="44" viewBox="0 0 44 44" fill="none" xmlns="http://www.w3.org/2000/svg">
<path fill-rule="evenodd" clip-rule="evenodd" d="M14.5568 23.9433C14.0418 23.4277 13.7525 22.7288 13.7525 22C13.7525 21.2712 14.0418 20.5723 14.5568 20.0567L24.9261 9.68367C25.442 9.16802 26.1416 8.87843 26.871 8.8786C27.6004 8.87877 28.2999 9.16869 28.8155 9.68458C29.3312 10.2005 29.6208 10.9001 29.6206 11.6295C29.6204 12.3589 29.3305 13.0584 28.8146 13.574L20.3886 22L28.8146 30.426C29.3158 30.9444 29.5933 31.6389 29.5874 32.36C29.5815 33.081 29.2926 33.7709 28.783 34.281C28.2733 34.7911 27.5837 35.0807 26.8627 35.0873C26.1416 35.0939 25.4468 34.817 24.928 34.3163L14.555 23.9452L14.5568 23.9433Z" fill="black"/>
</svg>
