<svg width="44" height="44" viewBox="0 0 44 44" fill="none" xmlns="http://www.w3.org/2000/svg">
<g clip-path="url(#clip0_50745_1433)">
<path fill-rule="evenodd" clip-rule="evenodd" d="M29.4432 20.0567C29.9582 20.5723 30.2475 21.2712 30.2475 22C30.2475 22.7288 29.9582 23.4277 29.4432 23.9433L19.0739 34.3163C18.558 34.832 17.8584 35.1216 17.129 35.1214C16.3996 35.1212 15.7001 34.8313 15.1845 34.3154C14.6688 33.7995 14.3792 33.0999 14.3794 32.3705C14.3796 31.6411 14.6695 30.9416 15.1854 30.426L23.6114 22L15.1854 13.574C14.6842 13.0556 14.4067 12.3611 14.4126 11.64C14.4185 10.919 14.7074 10.2291 15.217 9.71897C15.7267 9.20886 16.4163 8.91932 17.1373 8.91271C17.8584 8.90611 18.5532 9.18297 19.072 9.68367L29.445 20.0548L29.4432 20.0567Z" fill="black"/>
</g>
<defs>
<clipPath id="clip0_50745_1433">
<rect width="44" height="44" fill="white"/>
</clipPath>
</defs>
</svg>
